<?xml version="1.0" encoding="UTF-8" standalone="no"?>
<!-- Created with Inkscape (http://www.inkscape.org/) -->

<svg
   version="1.1"
   id="svg25"
   xml:space="preserve"
   width="691.77734"
   height="237.55865"
   viewBox="0 0 691.77734 237.55865"
   xmlns="http://www.w3.org/2000/svg"
   xmlns:svg="http://www.w3.org/2000/svg"><defs
     id="defs29"><clipPath
       clipPathUnits="userSpaceOnUse"
       id="clipPath41"><path
         d="M 0,216 H 576 V 0 H 0 Z"
         id="path39" /></clipPath></defs><g
     id="g31"
     transform="matrix(1.3333333,0,0,-1.3333333,-33.062666,262.61866)"><path
       d="M 195.306,26.47 H 32.473 v 162.819 h 162.833 z m 170.149,0 H 202.979 v 162.819 h 162.476 z m 170.499,0 H 373.477 V 189.289 H 535.954 Z M 24.797,18.795 H 543.63 V 196.964 H 24.797 Z"
       style="fill:#231f20;fill-opacity:1;fill-rule:nonzero;stroke:none"
       id="path33" /><g
       id="g35"><g
         id="g37"
         clip-path="url(#clipPath41)"><g
           id="g43"
           transform="translate(97.855,126.0581)"><path
             d="m 0,0 c 1.911,2.479 4.571,4.579 7.969,6.248 3.398,1.682 6.597,2.525 9.59,2.525 6.48,0 11.149,-1.714 14.002,-5.12 2.859,-3.421 4.289,-8.836 4.289,-16.264 v -50.305 h 20.387 v 53.525 c 0,11.12 -3.015,19.806 -9.022,26.011 -6.006,6.234 -14.217,9.34 -24.59,9.34 C 11.8,25.96 3.617,22.752 -1.93,16.332 l -3.756,8.151 H -20.375 V -62.916 H 0 Z"
             style="fill:#231f20;fill-opacity:1;fill-rule:nonzero;stroke:none"
             id="path45" /></g><g
           id="g47"
           transform="translate(266.4849,128.8921)"><path
             d="m 0,0 c 3.788,3.785 8.127,5.699 13.013,5.699 9.373,0 16.102,-2.108 20.171,-6.315 4.057,-4.202 6.091,-11.452 6.091,-21.769 0,-9.646 -2.05,-16.716 -6.134,-21.191 -4.099,-4.466 -10.836,-6.711 -20.209,-6.711 -4.936,0 -9.252,1.492 -12.932,4.478 z m 0,-63.632 c 5.278,-2.55 11.12,-3.841 17.545,-3.841 13.33,0 23.837,3.86 31.548,11.584 7.697,7.708 11.537,18.735 11.537,33.016 0,30.659 -13.918,45.999 -41.777,45.999 C 11.394,23.126 5.109,20.671 0,15.784 v 5.865 H -20.39 V -89.626 H 0 Z"
             style="fill:#231f20;fill-opacity:1;fill-rule:nonzero;stroke:none"
             id="path49" /></g><g
           id="g51"
           transform="translate(448.7617,112.7202)"><path
             d="m 0,0 c 0,6.178 1.815,11.402 5.471,15.686 3.655,4.284 7.836,6.425 12.534,6.425 4.335,0 8.307,-1.146 11.938,-3.439 l 8.602,17.445 C 34.866,38.236 29.558,39.298 22.642,39.298 13.222,39.298 5.68,36.026 0,29.471 v 8.35 H -20.386 V -49.578 H 0 Z"
             style="fill:#231f20;fill-opacity:1;fill-rule:nonzero;stroke:none"
             id="path53" /></g></g></g></g></svg>
