<svg xmlns="http://www.w3.org/2000/svg" width="61" height="61" fill="none" aria-labelledby="a8gvijq8ibqmue22zli2cfugimx092i0" class="card-img-top mb-2"><circle cx="30.5" cy="30.019" r="30" fill="#0058F0"/><g fill="#fff" clip-path="url(#a)"><path d="M34.616 43.3c-.05 0-.149 0-.198-.05-.149-.1-.248-.248-.248-.397v-4.165c0-.248.198-.446.446-.446h5.356c.198 0 .347.099.446.297.05.199 0 .397-.149.496a391.896 391.896 0 0 0-5.355 4.165c-.1.05-.199.1-.298.1Zm.447-4.166v2.777c1.14-.892 2.43-1.884 3.57-2.777h-3.57Z"/><path d="M34.615 43.3H21.772a.444.444 0 0 1-.446-.447v-7.24c0-.247.198-.446.447-.446.247 0 .446.199.446.447v6.793h12.248c1.537-1.19 3.47-2.727 5.058-3.917V19.597H21.773a.444.444 0 0 1-.447-.446c0-.248.198-.446.447-.446H39.97c.248 0 .446.198.446.446v19.537c0 .149-.05.248-.198.347a391.1 391.1 0 0 0-5.356 4.166.38.38 0 0 1-.248.099Z"/><path d="M35.558 22.423h-9.421a.444.444 0 0 1-.447-.446c0-.248.199-.446.447-.446h9.47c.249 0 .447.198.447.446s-.248.446-.496.446ZM37.294 24.754H24.848a.444.444 0 0 1-.447-.446c0-.248.199-.447.447-.447h12.446c.248 0 .446.199.446.447a.444.444 0 0 1-.446.446ZM37.293 27.035H25.591a.444.444 0 0 1-.447-.446c0-.248.199-.446.447-.446h11.702c.248 0 .447.198.447.446a.444.444 0 0 1-.447.446ZM37.294 29.316h-10.91a.444.444 0 0 1-.445-.446c0-.248.198-.447.446-.447h10.909c.248 0 .446.199.446.447a.444.444 0 0 1-.446.446ZM37.294 31.646h-9.422a.444.444 0 0 1-.446-.446c0-.248.198-.446.446-.446h9.372c.248 0 .446.198.446.446.05.248-.148.447-.396.447ZM37.294 33.928h-9.422a.444.444 0 0 1-.446-.447c0-.248.198-.446.446-.446h9.372c.248 0 .446.199.446.446.05.248-.148.447-.396.447ZM30.45 39.829h-6a.445.445 0 0 1-.446-.447c0-.248.198-.446.446-.446h6c.248 0 .447.198.447.446a.445.445 0 0 1-.447.447ZM23.855 37.101a.476.476 0 0 1-.446-.347l-3.868-14.182c-.297-.942.248-1.884 1.19-2.132.943-.248 1.885.297 2.133 1.19L26.78 35.86c.05.1 0 .248-.05.347-.05.1-.148.199-.248.199l-2.479.694h-.149Zm-2.677-15.818c-.05 0-.149 0-.199.05-.446.099-.694.594-.595 1.04l3.819 13.786 1.636-.447-3.818-13.834c-.1-.397-.447-.595-.843-.595Z"/><path d="M25.988 39.878c-.15 0-.248-.05-.348-.198l-2.082-2.777c-.1-.1-.1-.297-.05-.397a.447.447 0 0 1 .298-.297l2.479-.694c.149-.05.297 0 .397.099.099.099.149.248.149.396l-.397 3.471c0 .199-.149.348-.347.397h-.1Zm-1.34-2.975 1.042 1.339.198-1.686-1.24.347ZM20.285 30.506a.476.476 0 0 1-.446-.347l-1.24-4.562c-.198-.545-.099-1.09.199-1.636.297-.496.743-.893 1.289-1.041.248-.05.496.05.545.297.05.248-.099.496-.297.546a1.37 1.37 0 0 0-.794.595 1.363 1.363 0 0 0-.099.991l1.24 4.562c.05.248-.1.496-.298.546-.05.05-.099.05-.099.05ZM42.054 41.614h-5.256c-.199 0-.348-.1-.447-.298-.05-.198 0-.397.15-.496 1.04-.793 2.082-1.587 2.974-2.33V19.597h-15.62a.444.444 0 0 1-.446-.446v-1.686c0-.248.199-.446.447-.446h18.198c.248 0 .446.198.446.446v23.702a.445.445 0 0 1-.446.447Zm-3.967-.893h3.52v-22.81H24.303v.793h15.62c.248 0 .446.199.446.447v19.537c0 .149-.05.248-.199.347-.594.546-1.338 1.091-2.082 1.686Z"/></g><defs><clipPath id="a"><path fill="#fff" d="M18.5 17.019h24v26.28h-24z"/></clipPath></defs></svg>