<svg xmlns:inkscape="http://www.inkscape.org/namespaces/inkscape" xmlns:sodipodi="http://sodipodi.sourceforge.net/DTD/sodipodi-0.dtd" xmlns="http://www.w3.org/2000/svg" xmlns:svg="http://www.w3.org/2000/svg" width="60" height="60" viewBox="0 0 60 60" fill="none" version="1.1" id="svg60" sodipodi:docname="defense-document.svg" inkscape:version="1.2-beta (1b65182c, 2022-04-05)" role="img" aria-labelledby="aqoizyxendot00g5jb3f9i13qewkhhy2" class="card-img-top mb-2"><title id="aqoizyxendot00g5jb3f9i13qewkhhy2">Defense document icon</title>
  <sodipodi:namedview id="namedview62" pagecolor="#ffffff" bordercolor="#666666" borderopacity="1.0" inkscape:pageshadow="2" inkscape:pageopacity="0.0" inkscape:pagecheckerboard="0" inkscape:deskcolor="#d1d1d1" showgrid="false" inkscape:zoom="11.868421" inkscape:cx="29.995565" inkscape:cy="32.776053" inkscape:window-width="1390" inkscape:window-height="1052" inkscape:window-x="0" inkscape:window-y="0" inkscape:window-maximized="0" inkscape:current-layer="svg60"></sodipodi:namedview>
  <g opacity="0.6" filter="url(#filter0_dd_928_14358)" id="g4" transform="translate(-10.5,-5.1884991)">
    <path fill-rule="evenodd" clip-rule="evenodd" d="m 42.2583,40.188 7.4074,-10 h -5.5556 v -10 l -11.1111,15 h 5.5556 v 5 H 25.499 c -1.3807,0 -2.5,-1.1193 -2.5,-2.5 v -25 c 0,-1.3807 1.1193,-2.5 2.5,-2.5 h 30 c 1.3807,0 2.5,1.1193 2.5,2.5 v 25 c 0,1.3807 -1.1193,2.5 -2.5,2.5 z" fill="#687ded" id="path2"></path>
  </g>
  <circle cx="30" cy="30" r="30" fill="#0058f0" id="circle6"></circle>
  <g clip-path="url(#clip0_928_14358)" id="g28" transform="translate(-10.5,-5.1884991)">
    <path d="M 31.0995,48.0807 H 28.9918 C 28.7108,48.0807 28.5,47.87 28.5,47.5889 V 20.6803 c 0,-0.2811 0.2108,-0.4918 0.4918,-0.4918 h 20.3045 c 0.281,0 0.4918,0.2107 0.4918,0.4918 v 2.0375 c 0,0.281 -0.2108,0.4918 -0.4918,0.4918 H 31.6616 v 24.3793 c 0,0.2811 -0.281,0.4918 -0.5621,0.4918 z m -1.6159,-0.9836 h 1.1241 V 22.788 c 0,-0.281 0.2108,-0.4918 0.4918,-0.4918 H 48.7342 V 21.1721 H 29.4836 Z" fill="#ffffff" id="path8"></path>
    <path d="M 56.8135,50.1887 H 31.0992 c -0.281,0 -0.4918,-0.2108 -0.4918,-0.4918 V 22.7882 c 0,-0.281 0.2108,-0.4918 0.4918,-0.4918 h 20.3045 c 0.281,0 0.4918,0.2108 0.4918,0.4918 v 8.3606 c 0,0.2811 -0.2108,0.4918 -0.4918,0.4918 -0.2811,0 -0.4918,-0.2107 -0.4918,-0.4918 V 23.28 H 31.6613 v 25.9251 h 25.2225 c 0.281,0 0.4918,0.2107 0.4918,0.4918 -0.0703,0.2107 -0.2811,0.4918 -0.5621,0.4918 z" fill="#ffffff" id="path10"></path>
    <path d="m 45.0102,27.0036 h -8.9227 c -0.281,0 -0.4918,-0.2107 -0.4918,-0.4918 0,-0.281 0.2108,-0.4918 0.4918,-0.4918 h 8.9227 c 0.2811,0 0.4918,0.2108 0.4918,0.4918 0,0.2108 -0.2107,0.4918 -0.4918,0.4918 z" fill="#ffffff" id="path12"></path>
    <path d="M 48.3129,30.0949 H 34.3316 c -0.281,0 -0.4918,-0.2107 -0.4918,-0.4918 0,-0.281 0.2108,-0.4918 0.4918,-0.4918 h 13.9813 c 0.281,0 0.4918,0.2108 0.4918,0.4918 0,0.2811 -0.2108,0.4918 -0.4918,0.4918 z" fill="#ffffff" id="path14"></path>
    <path d="m 44.3082,33.1862 h -9.9766 c -0.281,0 -0.4918,-0.2107 -0.4918,-0.4918 0,-0.281 0.2108,-0.4918 0.4918,-0.4918 h 9.9064 c 0.281,0 0.4918,0.2108 0.4918,0.4918 0,0.2811 -0.1405,0.4918 -0.4216,0.4918 z" fill="#ffffff" id="path16"></path>
    <path d="m 39.4605,36.2776 h -5.1289 c -0.281,0 -0.4918,-0.2108 -0.4918,-0.4919 0,-0.281 0.2108,-0.4918 0.4918,-0.4918 h 5.1289 c 0.281,0 0.4918,0.2108 0.4918,0.4918 0,0.2811 -0.2108,0.4919 -0.4918,0.4919 z" fill="#ffffff" id="path18"></path>
    <path d="m 49.1559,50.1181 c -0.0703,0 -0.1406,0 -0.1406,0 -0.0702,0 -7.7283,-2.9508 -7.8688,-13.2787 0,-0.2107 0.0702,-0.3513 0.281,-0.4215 l 7.4473,-4.4262 c 0.1405,-0.0703 0.3513,-0.0703 0.4918,0 l 7.5878,4.3559 c 0.1406,0.0703 0.2811,0.2811 0.2811,0.4216 -0.1405,10.3278 -7.7986,13.2787 -7.8689,13.2787 -0.0702,0.0702 -0.1405,0.0702 -0.2107,0.0702 z M 42.1301,37.0502 c 0.2108,8.5714 5.9719,11.5223 7.0258,12.0141 1.1241,-0.4918 6.8149,-3.3022 7.0257,-12.0141 l -7.0257,-4.0749 z" fill="#ffffff" id="path20"></path>
    <path d="m 49.1559,50.1181 c -0.2811,0 -0.4918,-0.2108 -0.4918,-0.4918 V 32.4132 c 0,-0.281 0.2107,-0.4918 0.4918,-0.4918 0.281,0 0.4918,0.2108 0.4918,0.4918 v 17.2131 c 0,0.281 -0.2108,0.4918 -0.4918,0.4918 z" fill="#ffffff" id="path22"></path>
    <path d="m 35.1043,44.4977 c -0.2108,0 -0.4215,-0.0703 -0.4918,-0.1405 -0.6323,-0.4216 -0.4215,-1.4052 -0.4215,-1.7565 0.0702,-0.281 0.3512,-1.6861 1.2646,-1.6861 0.3513,0 0.7728,0.1405 1.0539,0.4215 0.2107,0.2108 0.281,0.4215 0.281,0.7026 0,0.281 -0.281,0.4918 -0.4918,0.4918 -0.2811,0 -0.4918,-0.2108 -0.4918,-0.4918 -0.0703,-0.0703 -0.2108,-0.1405 -0.3513,-0.1405 -0.0703,0.0702 -0.281,0.4215 -0.3513,0.843 -0.0703,0.4216 -0.0703,0.6324 0,0.7026 0.1405,0 0.3513,-0.0702 0.8431,-0.2107 0.7728,-0.2108 1.1241,-0.3513 1.3349,-0.5621 0.3513,-0.281 0.562,-0.7026 0.6323,-0.9836 0.1405,-0.281 0.281,-0.7026 0.7728,-0.7026 0.6324,0 0.8431,0.7728 1.1242,2.0375 0.0702,0.281 -0.1406,0.562 -0.4216,0.562 -0.281,0.0703 -0.562,-0.1405 -0.562,-0.4215 -0.0703,-0.281 -0.0703,-0.4918 -0.1406,-0.7026 -0.1405,0.281 -0.3513,0.6323 -0.7728,0.9836 -0.3513,0.2811 -0.8431,0.4918 -1.6862,0.7026 -0.4215,0.281 -0.8431,0.3513 -1.1241,0.3513 z" fill="#ffffff" id="path24"></path>
    <path d="m 39.4607,46.6755 h -4.7775 c -0.2811,0 -0.5621,-0.2108 -0.5621,-0.4918 0,-0.281 0.2108,-0.4918 0.4918,-0.4918 h 4.7775 c 0.281,0 0.4918,0.2108 0.4918,0.4918 0.0703,0.281 -0.1405,0.4918 -0.4215,0.4918 z" fill="#ffffff" id="path26"></path>
  </g>
  <defs id="defs58">
    <filter id="filter0_dd_928_14358" x="0.49902299" y="0.81298798" width="80" height="75" filterUnits="userSpaceOnUse" color-interpolation-filters="sRGB">
      <feFlood flood-opacity="0" result="BackgroundImageFix" id="feFlood30"></feFlood>
      <feColorMatrix in="SourceAlpha" type="matrix" values="0 0 0 0 0 0 0 0 0 0 0 0 0 0 0 0 0 0 127 0" result="hardAlpha" id="feColorMatrix32"></feColorMatrix>
      <feOffset dy="13.125" id="feOffset34"></feOffset>
      <feGaussianBlur stdDeviation="11.25" id="feGaussianBlur36"></feGaussianBlur>
      <feColorMatrix type="matrix" values="0 0 0 0 0.104368 0 0 0 0 0.0880254 0 0 0 0 0.256901 0 0 0 0.06 0" id="feColorMatrix38"></feColorMatrix>
      <feBlend mode="normal" in2="BackgroundImageFix" result="effect1_dropShadow_928_14358" id="feBlend40"></feBlend>
      <feColorMatrix in="SourceAlpha" type="matrix" values="0 0 0 0 0 0 0 0 0 0 0 0 0 0 0 0 0 0 127 0" result="hardAlpha" id="feColorMatrix42"></feColorMatrix>
      <feOffset id="feOffset44"></feOffset>
      <feGaussianBlur stdDeviation="2.8125" id="feGaussianBlur46"></feGaussianBlur>
      <feColorMatrix type="matrix" values="0 0 0 0 0 0 0 0 0 0 0 0 0 0 0 0 0 0 0.03 0" id="feColorMatrix48"></feColorMatrix>
      <feBlend mode="normal" in2="effect1_dropShadow_928_14358" result="effect2_dropShadow_928_14358" id="feBlend50"></feBlend>
      <feBlend mode="normal" in="SourceGraphic" in2="effect2_dropShadow_928_14358" result="shape" id="feBlend52"></feBlend>
    </filter>
    <clipPath id="clip0_928_14358">
      <rect width="28.805599" height="30" fill="#ffffff" transform="translate(28.5,20.1885)" id="rect55" x="0" y="0"></rect>
    </clipPath>
  </defs>
</svg>