<svg xmlns="http://www.w3.org/2000/svg" width="327" height="380" fill="none" aria-labelledby="ann0itewo5ovy3jy4w2rsjfz0s0t9vz0" class="mt-9 mb-10"><path fill="#18191F" d="m253.468 49.529 53.072 2.942a17.22 17.22 0 0 1 12.001 5.84 17.241 17.241 0 0 1 4.235 12.664l-6.067 81.882a17.25 17.25 0 0 1-5.422 11.321 17.219 17.219 0 0 1-11.656 4.642 5.715 5.715 0 0 0-3.898 1.573 5.726 5.726 0 0 0-1.771 3.814l-10.117 173.261a21.523 21.523 0 0 1-7.131 14.771 21.49 21.49 0 0 1-15.462 5.45l-202.81-10.668a5.719 5.719 0 0 1-5.41-6.076L73.228 50.389a5.723 5.723 0 0 1 5.853-5.335l174.387 4.475Z"/><path fill="#111" d="m53.44 345.148-.374 5.679 219.329 1.143 24.948-300.038s-53.515 2.875-54.504 2.779c-.988-.096-189.399 290.437-189.399 290.437Z" opacity=".3"/><path fill="#FEE1C1" d="m227.509 30.767 63.461 2.288-23.648 311.197-224.233.943-2.693-312.116 187.113-2.312Z"/><path fill="#fff" d="M30.356 21.692 30.06 337.17l234.689.695-3.21-315.585-231.183-.587Z"/><g fill="#F4F5F7" clip-path="url(#a)"><rect width="202.429" height="8.707" x="52.141" y="122.453" rx="4.353"/><rect width="202.429" height="8.707" x="52.141" y="142.043" rx="4.353"/><rect width="202.429" height="8.707" x="52.141" y="161.633" rx="4.353"/><rect width="202.429" height="8.707" x="52.141" y="181.223" rx="4.353"/><rect width="202.429" height="8.707" x="52.141" y="200.812" rx="4.353"/><rect width="130.599" height="8.707" x="52.141" y="220.403" rx="4.353"/></g><path fill="#18191F" d="M91.837 82.782v-12.6h4.302c1.476 0 2.688.264 3.636.792.96.516 1.668 1.248 2.124 2.196.468.936.702 2.04.702 3.312 0 1.272-.234 2.382-.702 3.33-.456.936-1.164 1.668-2.124 2.196-.948.516-2.16.774-3.636.774h-4.302Zm2.304-1.98h1.89c1.056 0 1.89-.168 2.502-.504a2.968 2.968 0 0 0 1.314-1.476c.264-.648.396-1.428.396-2.34 0-.9-.132-1.674-.396-2.322a2.958 2.958 0 0 0-1.314-1.494c-.612-.348-1.446-.522-2.502-.522h-1.89v8.658Zm14.777 2.196c-.9 0-1.698-.192-2.394-.576a4.169 4.169 0 0 1-1.638-1.62c-.396-.696-.594-1.5-.594-2.412 0-.924.192-1.746.576-2.466a4.265 4.265 0 0 1 1.62-1.674c.696-.408 1.512-.612 2.448-.612.876 0 1.65.192 2.322.576a4.055 4.055 0 0 1 1.566 1.584c.384.66.576 1.398.576 2.214 0 .132-.006.27-.018.414 0 .144-.006.294-.018.45h-6.786c.048.696.288 1.242.72 1.638.444.396.978.594 1.602.594.468 0 .858-.102 1.17-.306.324-.216.564-.492.72-.828h2.34a4.26 4.26 0 0 1-.846 1.548 4.067 4.067 0 0 1-1.44 1.08c-.564.264-1.206.396-1.926.396Zm.018-7.488c-.564 0-1.062.162-1.494.486-.432.312-.708.792-.828 1.44h4.446c-.036-.588-.252-1.056-.648-1.404-.396-.348-.888-.522-1.476-.522Zm11.694 7.488c-.672 0-1.26-.126-1.764-.378a3.18 3.18 0 0 1-1.224-1.062l-.252 1.224h-2.052v-12.96h2.304v5.31a4.145 4.145 0 0 1 1.134-1.044c.48-.3 1.098-.45 1.854-.45.84 0 1.59.204 2.25.612.66.408 1.182.966 1.566 1.674.384.708.576 1.512.576 2.412 0 .9-.192 1.704-.576 2.412a4.42 4.42 0 0 1-1.566 1.656c-.66.396-1.41.594-2.25.594Zm-.486-2.016c.732 0 1.338-.246 1.818-.738s.72-1.128.72-1.908-.24-1.422-.72-1.926-1.086-.756-1.818-.756c-.744 0-1.356.252-1.836.756-.468.492-.702 1.128-.702 1.908s.234 1.422.702 1.926c.48.492 1.092.738 1.836.738Zm10.562 1.8c-.936 0-1.686-.228-2.25-.684-.564-.456-.846-1.266-.846-2.43V75.78h-1.53v-1.926h1.53l.27-2.394h2.034v2.394h2.412v1.926h-2.412v3.906c0 .432.09.732.27.9.192.156.516.234.972.234h1.116v1.962h-1.566Zm7.942 0v-12.6h2.304v10.8h5.58v1.8h-7.884Zm12.938.216c-.768 0-1.398-.12-1.89-.36-.492-.252-.858-.582-1.098-.99a2.614 2.614 0 0 1-.36-1.35c0-.828.324-1.5.972-2.016.648-.516 1.62-.774 2.916-.774h2.268v-.216c0-.612-.174-1.062-.522-1.35-.348-.288-.78-.432-1.296-.432-.468 0-.876.114-1.224.342-.348.216-.564.54-.648.972h-2.25c.06-.648.276-1.212.648-1.692.384-.48.876-.846 1.476-1.098.6-.264 1.272-.396 2.016-.396 1.272 0 2.274.318 3.006.954.732.636 1.098 1.536 1.098 2.7v5.49h-1.962l-.216-1.44c-.264.48-.636.876-1.116 1.188-.468.312-1.074.468-1.818.468Zm.522-1.8c.66 0 1.17-.216 1.53-.648.372-.432.606-.966.702-1.602h-1.962c-.612 0-1.05.114-1.314.342a1.005 1.005 0 0 0-.396.81c0 .348.132.618.396.81.264.192.612.288 1.044.288Zm8.446 1.584-2.61-8.928h2.286l1.548 6.426 1.8-6.426h2.556l1.8 6.426 1.566-6.426h2.286l-2.628 8.928h-2.394l-1.908-6.678-1.908 6.678h-2.394Zm16.376.216c-.792 0-1.488-.126-2.088-.378-.6-.264-1.08-.624-1.44-1.08a3.1 3.1 0 0 1-.648-1.584h2.322c.072.348.264.648.576.9.324.24.738.36 1.242.36s.87-.102 1.098-.306c.24-.204.36-.438.36-.702 0-.384-.168-.642-.504-.774-.336-.144-.804-.282-1.404-.414a15.338 15.338 0 0 1-1.17-.306 6.009 6.009 0 0 1-1.098-.45 2.544 2.544 0 0 1-.792-.72c-.204-.3-.306-.666-.306-1.098 0-.792.312-1.458.936-1.998.636-.54 1.524-.81 2.664-.81 1.056 0 1.896.246 2.52.738.636.492 1.014 1.17 1.134 2.034h-2.178c-.132-.66-.63-.99-1.494-.99-.432 0-.768.084-1.008.252-.228.168-.342.378-.342.63 0 .264.174.474.522.63.348.156.81.3 1.386.432.624.144 1.194.306 1.71.486.528.168.948.426 1.26.774.312.336.468.822.468 1.458a2.507 2.507 0 0 1-.432 1.494c-.3.444-.732.792-1.296 1.044-.564.252-1.23.378-1.998.378Zm9.115 0c-1.116 0-1.98-.348-2.592-1.044-.6-.696-.9-1.716-.9-3.06v-5.04h2.286v4.824c0 .768.156 1.356.468 1.764.312.408.804.612 1.476.612.636 0 1.158-.228 1.566-.684.42-.456.63-1.092.63-1.908v-4.608h2.304v8.928h-2.034l-.18-1.512a3.122 3.122 0 0 1-1.206 1.26c-.516.312-1.122.468-1.818.468Zm8.845-10.53c-.42 0-.768-.126-1.044-.378a1.263 1.263 0 0 1-.396-.954c0-.384.132-.696.396-.936.276-.252.624-.378 1.044-.378.42 0 .762.126 1.026.378.276.24.414.552.414.936s-.138.702-.414.954c-.264.252-.606.378-1.026.378Zm-1.152 10.314v-8.928h2.304v8.928h-2.304Zm8.687 0c-.936 0-1.686-.228-2.25-.684-.564-.456-.846-1.266-.846-2.43V75.78h-1.53v-1.926h1.53l.27-2.394h2.034v2.394h2.412v1.926h-2.412v3.906c0 .432.09.732.27.9.192.156.516.234.972.234h1.116v1.962h-1.566Z"/><defs><clipPath id="a"><path fill="#fff" d="M52.14 122.453h191.186v106.656H52.14z"/></clipPath></defs></svg>