<svg xmlns="http://www.w3.org/2000/svg" width="112" height="112" viewBox="0 0 112 112" fill="none" role="img" aria-labelledby="a3qrf1fz2ciogp4w02riisrqn3ax85s0"><title id="a3qrf1fz2ciogp4w02riisrqn3ax85s0">People</title>
<path d="M34.5999 75.8C34.3999 75.8 34.1999 75.8 33.9999 75.8C28.2999 75.8 22.6999 75.8 16.9999 75.8C15.7999 75.8 15.2999 75.2999 15.2999 74.0999C15.2999 72.3999 15.1999 70.7 15.3999 69C15.8999 63.4 18.4999 59 23.1999 56C29.4999 52 37.2999 52.5 43.0999 57.2C43.1999 57.3 43.2999 57.3 43.3999 57.4C47.1999 54.6 51.3999 53.2 56.0999 53.2C60.7999 53.2 64.9999 54.6 68.7999 57.4C69.5999 56.9 70.2999 56.2999 70.9999 55.7999C77.0999 51.9999 85.2999 52.5999 90.7999 57.2999C93.9999 60.0999 95.8999 63.4999 96.5999 67.6999C96.7999 68.9999 96.7999 70.3999 96.7999 71.6999C96.7999 72.4999 96.7999 73.2999 96.7999 74.0999C96.7999 75.1999 96.2999 75.6999 95.1999 75.6999C89.4999 75.6999 83.7999 75.6999 78.0999 75.6999C77.8999 75.6999 77.7999 75.6999 77.5999 75.6999C77.5999 75.8999 77.5999 75.9999 77.5999 76.1999C77.5999 77.3999 77.5999 78.6 77.5999 79.8C77.5999 80.8 76.9999 81.3 75.9999 81.3C62.6999 81.3 49.3999 81.3 36.1999 81.3C35.1999 81.3 34.6999 80.7999 34.6999 79.6999C34.6999 78.4999 34.6999 77.2999 34.6999 76.1999C34.5999 76.1999 34.5999 76.1 34.5999 75.8ZM74.5999 78.5999C74.5999 77.2999 74.5999 75.9999 74.5999 74.6999C74.4999 68.7999 72.2999 63.8999 67.6999 60.2999C61.9999 55.6999 55.5999 54.8 48.7999 57.5C42.5999 60 38.8999 64.8 37.5999 71.4C37.0999 73.7 37.2999 76.1 37.2999 78.4C37.2999 78.4 37.2999 78.4 37.3999 78.5C49.7999 78.6 62.1999 78.5999 74.5999 78.5999ZM41.0999 59.2C40.9999 59.1 40.8999 59 40.7999 58.9C33.6999 53.6 23.4999 56.0999 19.5999 64.0999C18.1999 66.8999 18.0999 69.9 18.1999 72.9C18.1999 72.9 18.1999 72.9 18.2999 73C18.3999 73 18.5999 73 18.7999 73C23.7999 73 28.8999 73 33.8999 73C34.6999 73 34.6999 72.9999 34.7999 72.0999C35.1999 68.3999 36.4999 65 38.6999 62C39.3999 61.1 40.1999 60.2 41.0999 59.2ZM70.9999 59.2999C74.7999 62.9999 76.8999 67.7 77.4999 72.9C82.9999 72.9 88.3999 72.9 93.8999 72.9C94.4999 66.5 92.1999 60.8999 86.2999 57.7999C80.9999 54.9999 74.7999 56.0999 70.9999 59.2999Z" fill="currentcolor"></path>
<path d="M55.9999 52.1C49.5999 52.1 44.3999 46.9001 44.3999 40.4001C44.3999 34.0001 49.5999 28.8 56.0999 28.8C62.4999 28.8 67.6999 34 67.6999 40.5C67.5999 47 62.3999 52.2 55.9999 52.1ZM55.9999 31.7001C51.0999 31.7001 47.1999 35.6 47.1999 40.5C47.1999 45.4 51.1999 49.3001 55.9999 49.4001C60.8999 49.4001 64.7999 45.4 64.7999 40.6C64.8999 35.6 60.8999 31.7001 55.9999 31.7001Z" fill="currentcolor"></path>
<path d="M79.7999 33.8999C84.9999 33.8999 89.1999 38.0999 89.0999 43.2999C89.0999 48.4999 84.8999 52.5999 79.6999 52.5999C74.4999 52.5999 70.3999 48.3999 70.3999 43.1999C70.3999 37.9999 74.5999 33.7999 79.7999 33.8999ZM86.2999 43.1999C86.2999 39.5999 83.3999 36.6999 79.7999 36.5999C76.1999 36.5999 73.1999 39.4999 73.1999 43.0999C73.1999 46.6999 76.0999 49.5999 79.6999 49.5999C83.3999 49.6999 86.2999 46.7999 86.2999 43.1999Z" fill="currentcolor"></path>
<path d="M41.6 43.2C41.6 48.4 37.4 52.5 32.3 52.6C27.1 52.6 23 48.4 23 43.3C23 38.1 27.2 34 32.3 34C37.4 33.8 41.6 38 41.6 43.2ZM38.8 43.2C38.8 39.6 35.9 36.7 32.3 36.7C28.7 36.7 25.8 39.6 25.8 43.3C25.8 46.9 28.7 49.8 32.4 49.8C35.9 49.7 38.8 46.8 38.8 43.2Z" fill="currentcolor"></path>
<path d="M56 112C25.1 112 0 86.9 0 56C0 25.1 25.1 0 56 0C86.9 0 112 25.1 112 56C112 86.9 86.9 112 56 112ZM56 2.6C26.6 2.6 2.6 26.6 2.6 56C2.6 85.4 26.6 109.4 56 109.4C85.4 109.4 109.4 85.4 109.4 56C109.4 26.6 85.5 2.6 56 2.6Z" fill="currentcolor"></path>
</svg>