<svg xmlns="http://www.w3.org/2000/svg" width="792" height="413" viewBox="0 0 792 413" fill="none" role="img" aria-labelledby="aknxv53g7k11q7f1mrezftb9apvt270h"><title id="aknxv53g7k11q7f1mrezftb9apvt270h">Solo formerly Solosuit Logo</title>
<g clip-path="url(#clip0_1558_327)">
<path d="M331.224 91.2672C281.254 91.2672 229.548 124.174 229.548 195.046C229.548 269.877 287.34 299.095 331.224 299.095C379.839 299.095 432.501 264.946 432.501 194.982C432.501 125.018 381.193 91.2752 331.224 91.2752V91.2672ZM330.818 248.289C330.818 248.289 285.038 251.794 285.038 194.369C285.038 144.176 322.804 141.898 330.818 141.898C338.831 141.898 376.597 143.308 376.597 195.181C376.597 252.081 330.818 248.289 330.818 248.289Z" fill="#0058F0"></path>
<path d="M463.373 39.7146L464.696 232.842C464.696 232.842 462.259 297.489 530.372 297.489C530.372 297.489 557.207 299.087 578.563 279.515L558.593 237.79C558.593 237.79 546.636 247.971 535.102 243.08C522.293 237.647 524.499 217.114 524.499 190.919V0.675171L463.373 39.7146Z" fill="#0058F0"></path>
<path d="M98.8184 7.07812C157.242 7.07812 185.02 48.4174 192.05 69.6365L143.771 101.45C131.789 66.7403 87.6714 49.8457 71.9392 69.5136C58.4549 86.3711 67.9274 112.904 108.548 125.119C194.186 155.409 200.531 189.472 200.531 211.043C200.531 244.147 180.804 298.417 103.361 298.417C36.5354 298.417 6.85524 253.703 0.476562 231.703L44.5344 202.736C81.4009 263.972 125.4 249.237 138.34 234.985C150.107 222.429 154.402 193.209 95.5374 175.111C19.735 151.805 7.82399 111.719 7.82399 87.5283C7.82399 66.1339 25.7886 7.07812 98.8184 7.07812Z" fill="#0058F0"></path>
<path d="M690.246 91.2672C640.276 91.2672 588.57 124.174 588.57 195.046C588.57 269.877 646.362 299.095 690.246 299.095C738.861 299.095 791.523 264.946 791.523 194.982C791.523 125.018 740.215 91.2752 690.246 91.2752V91.2672ZM689.84 248.289C689.84 248.289 644.06 251.794 644.06 194.369C644.06 144.176 681.826 141.898 689.84 141.898C697.853 141.898 735.619 143.308 735.619 195.181C735.619 252.081 689.84 248.289 689.84 248.289Z" fill="#0058F0"></path>
</g>
<path d="M194.676 382V340H220.236V344.14H199.716V358.9H217.176V362.98H199.716V382H194.676ZM238.931 382.72C236.011 382.72 233.431 382.04 231.191 380.68C228.951 379.32 227.211 377.4 225.971 374.92C224.731 372.44 224.111 369.54 224.111 366.22C224.111 362.86 224.731 359.96 225.971 357.52C227.251 355.04 229.011 353.12 231.251 351.76C233.531 350.4 236.131 349.72 239.051 349.72C242.011 349.72 244.591 350.4 246.791 351.76C249.031 353.12 250.771 355.04 252.011 357.52C253.251 359.96 253.871 362.86 253.871 366.22C253.871 369.54 253.231 372.44 251.951 374.92C250.711 377.4 248.971 379.32 246.731 380.68C244.491 382.04 241.891 382.72 238.931 382.72ZM238.931 378.4C240.771 378.4 242.431 377.96 243.911 377.08C245.391 376.16 246.551 374.8 247.391 373C248.271 371.16 248.711 368.9 248.711 366.22C248.711 363.5 248.291 361.24 247.451 359.44C246.611 357.64 245.451 356.3 243.971 355.42C242.531 354.5 240.891 354.04 239.051 354.04C237.251 354.04 235.611 354.5 234.131 355.42C232.651 356.3 231.471 357.64 230.591 359.44C229.711 361.24 229.271 363.5 229.271 366.22C229.271 368.9 229.691 371.16 230.531 373C231.411 374.8 232.571 376.16 234.011 377.08C235.491 377.96 237.131 378.4 238.931 378.4ZM261.172 382V350.44H265.732L266.092 356.2C266.812 354.76 267.752 353.56 268.912 352.6C270.072 351.64 271.472 350.92 273.112 350.44C274.792 349.96 276.672 349.72 278.752 349.72V355H275.632C274.432 355 273.272 355.16 272.152 355.48C271.032 355.8 270.012 356.32 269.092 357.04C268.212 357.76 267.512 358.74 266.992 359.98C266.472 361.22 266.212 362.78 266.212 364.66V382H261.172ZM284.551 382V350.44H289.111L289.351 354.76C290.311 353.2 291.611 351.98 293.251 351.1C294.891 350.18 296.611 349.72 298.411 349.72C299.931 349.72 301.291 349.94 302.491 350.38C303.731 350.78 304.811 351.42 305.731 352.3C306.651 353.14 307.391 354.2 307.951 355.48C308.991 353.6 310.391 352.18 312.151 351.22C313.951 350.22 315.831 349.72 317.791 349.72C320.111 349.72 322.091 350.18 323.731 351.1C325.411 351.98 326.691 353.34 327.571 355.18C328.491 356.98 328.951 359.24 328.951 361.96V382H323.971V362.5C323.971 359.66 323.351 357.54 322.111 356.14C320.871 354.74 319.191 354.04 317.071 354.04C315.631 354.04 314.311 354.42 313.111 355.18C311.951 355.94 311.011 357.06 310.291 358.54C309.611 360.02 309.271 361.82 309.271 363.94V382H304.231V362.5C304.231 359.66 303.611 357.54 302.371 356.14C301.131 354.74 299.471 354.04 297.391 354.04C295.991 354.04 294.691 354.42 293.491 355.18C292.331 355.94 291.391 357.06 290.671 358.54C289.951 360.02 289.591 361.82 289.591 363.94V382H284.551ZM350.365 382.72C347.565 382.72 345.085 382.04 342.925 380.68C340.765 379.32 339.065 377.4 337.825 374.92C336.625 372.44 336.025 369.54 336.025 366.22C336.025 362.9 336.625 360 337.825 357.52C339.065 355.04 340.765 353.12 342.925 351.76C345.125 350.4 347.645 349.72 350.485 349.72C353.525 349.72 356.065 350.4 358.105 351.76C360.145 353.12 361.685 354.94 362.725 357.22C363.765 359.5 364.285 362 364.285 364.72C364.285 365.12 364.285 365.52 364.285 365.92C364.285 366.32 364.265 366.8 364.225 367.36H339.805V363.46H359.365C359.285 360.38 358.385 358.04 356.665 356.44C354.985 354.8 352.885 353.98 350.365 353.98C348.685 353.98 347.125 354.4 345.685 355.24C344.285 356.04 343.145 357.24 342.265 358.84C341.385 360.44 340.945 362.44 340.945 364.84V366.52C340.945 369.16 341.385 371.38 342.265 373.18C343.145 374.94 344.285 376.26 345.685 377.14C347.125 378.02 348.685 378.46 350.365 378.46C352.605 378.46 354.365 378.04 355.645 377.2C356.925 376.32 357.865 375.08 358.465 373.48H363.445C362.965 375.24 362.125 376.82 360.925 378.22C359.765 379.62 358.285 380.72 356.485 381.52C354.725 382.32 352.685 382.72 350.365 382.72ZM371.269 382V350.44H375.829L376.189 356.2C376.909 354.76 377.849 353.56 379.009 352.6C380.169 351.64 381.569 350.92 383.209 350.44C384.889 349.96 386.769 349.72 388.849 349.72V355H385.729C384.529 355 383.369 355.16 382.249 355.48C381.129 355.8 380.109 356.32 379.189 357.04C378.309 357.76 377.609 358.74 377.089 359.98C376.569 361.22 376.309 362.78 376.309 364.66V382H371.269ZM394.648 382V338.8H399.688V382H394.648ZM411.723 395.2L418.863 378.64H417.123L405.303 350.44H410.763L420.543 374.74L430.743 350.44H435.963L416.943 395.2H411.723ZM665.015 366.261C665.015 365.187 664.849 364.224 664.519 363.37C664.216 362.489 663.638 361.69 662.784 360.974C661.93 360.23 660.732 359.501 659.19 358.785C657.648 358.069 655.651 357.325 653.2 356.554C650.474 355.673 647.885 354.681 645.434 353.58C643.011 352.478 640.863 351.198 638.99 349.738C637.145 348.251 635.686 346.53 634.612 344.574C633.565 342.619 633.042 340.347 633.042 337.758C633.042 335.252 633.593 332.98 634.694 330.943C635.796 328.877 637.338 327.115 639.321 325.655C641.304 324.168 643.644 323.025 646.343 322.226C649.07 321.428 652.058 321.029 655.307 321.029C659.741 321.029 663.61 321.827 666.915 323.424C670.22 325.022 672.781 327.211 674.598 329.992C676.443 332.774 677.366 335.955 677.366 339.535H665.056C665.056 337.772 664.684 336.23 663.941 334.908C663.225 333.559 662.123 332.499 660.636 331.727C659.176 330.956 657.331 330.571 655.101 330.571C652.953 330.571 651.163 330.901 649.731 331.562C648.299 332.196 647.224 333.063 646.508 334.165C645.792 335.239 645.434 336.45 645.434 337.8C645.434 338.819 645.682 339.741 646.178 340.567C646.701 341.394 647.472 342.165 648.491 342.881C649.51 343.597 650.763 344.271 652.25 344.905C653.737 345.538 655.459 346.158 657.414 346.764C660.691 347.755 663.569 348.871 666.047 350.11C668.554 351.349 670.646 352.74 672.326 354.282C674.006 355.824 675.273 357.573 676.127 359.528C676.98 361.483 677.407 363.7 677.407 366.179C677.407 368.795 676.898 371.136 675.879 373.201C674.86 375.267 673.387 377.015 671.459 378.447C669.531 379.879 667.232 380.967 664.56 381.711C661.889 382.454 658.901 382.826 655.596 382.826C652.622 382.826 649.689 382.441 646.798 381.67C643.906 380.871 641.276 379.673 638.908 378.076C636.567 376.478 634.694 374.441 633.29 371.962C631.885 369.483 631.183 366.551 631.183 363.163H643.617C643.617 365.036 643.906 366.619 644.484 367.914C645.063 369.208 645.875 370.255 646.922 371.053C647.996 371.852 649.262 372.43 650.722 372.788C652.209 373.146 653.834 373.325 655.596 373.325C657.744 373.325 659.507 373.022 660.884 372.416C662.288 371.811 663.321 370.971 663.982 369.897C664.67 368.823 665.015 367.611 665.015 366.261ZM711.528 371.301V337.304H723.425V382H712.23L711.528 371.301ZM712.85 362.131L716.361 362.048C716.361 365.022 716.017 367.79 715.329 370.351C714.64 372.885 713.607 375.088 712.23 376.96C710.854 378.805 709.119 380.251 707.026 381.298C704.933 382.317 702.468 382.826 699.631 382.826C697.456 382.826 695.445 382.523 693.6 381.917C691.783 381.284 690.213 380.306 688.891 378.984C687.597 377.635 686.578 375.914 685.834 373.821C685.118 371.7 684.76 369.153 684.76 366.179V337.304H696.657V366.261C696.657 367.583 696.809 368.699 697.112 369.607C697.442 370.516 697.896 371.26 698.475 371.838C699.053 372.416 699.728 372.829 700.499 373.077C701.297 373.325 702.179 373.449 703.143 373.449C705.594 373.449 707.521 372.953 708.926 371.962C710.358 370.971 711.363 369.621 711.941 367.914C712.547 366.179 712.85 364.251 712.85 362.131ZM745.071 337.304V382H733.133V337.304H745.071ZM732.389 325.655C732.389 323.92 732.995 322.488 734.207 321.359C735.418 320.23 737.043 319.665 739.081 319.665C741.091 319.665 742.702 320.23 743.914 321.359C745.153 322.488 745.773 323.92 745.773 325.655C745.773 327.39 745.153 328.822 743.914 329.951C742.702 331.08 741.091 331.645 739.081 331.645C737.043 331.645 735.418 331.08 734.207 329.951C732.995 328.822 732.389 327.39 732.389 325.655ZM776.796 337.304V345.731H750.771V337.304H776.796ZM757.216 326.275H769.112V368.533C769.112 369.828 769.278 370.819 769.608 371.508C769.966 372.196 770.489 372.678 771.178 372.953C771.866 373.201 772.734 373.325 773.78 373.325C774.524 373.325 775.185 373.298 775.763 373.243C776.369 373.16 776.878 373.077 777.292 372.995L777.333 381.752C776.314 382.083 775.212 382.344 774.028 382.537C772.844 382.73 771.536 382.826 770.104 382.826C767.488 382.826 765.202 382.399 763.247 381.546C761.319 380.664 759.832 379.26 758.785 377.332C757.739 375.404 757.216 372.871 757.216 369.731V326.275Z" fill="#111111"></path>
<path d="M494.989 366.261C494.989 365.187 494.823 364.224 494.493 363.37C494.19 362.489 493.612 361.69 492.758 360.974C491.904 360.23 490.706 359.501 489.164 358.785C487.622 358.069 485.625 357.325 483.174 356.554C480.448 355.673 477.859 354.681 475.408 353.58C472.985 352.478 470.837 351.198 468.964 349.738C467.119 348.251 465.659 346.53 464.585 344.574C463.539 342.619 463.016 340.347 463.016 337.758C463.016 335.252 463.567 332.98 464.668 330.943C465.77 328.877 467.312 327.115 469.295 325.655C471.277 324.168 473.618 323.025 476.317 322.226C479.043 321.428 482.031 321.029 485.281 321.029C489.715 321.029 493.584 321.827 496.889 323.424C500.193 325.022 502.755 327.211 504.572 329.992C506.417 332.774 507.34 335.955 507.34 339.535H495.03C495.03 337.772 494.658 336.23 493.915 334.908C493.199 333.559 492.097 332.499 490.61 331.727C489.15 330.956 487.305 330.571 485.075 330.571C482.926 330.571 481.136 330.901 479.704 331.562C478.272 332.196 477.198 333.063 476.482 334.165C475.766 335.239 475.408 336.45 475.408 337.8C475.408 338.819 475.656 339.741 476.152 340.567C476.675 341.394 477.446 342.165 478.465 342.881C479.484 343.597 480.737 344.271 482.224 344.905C483.711 345.538 485.433 346.158 487.388 346.764C490.665 347.755 493.543 348.871 496.021 350.11C498.527 351.349 500.62 352.74 502.3 354.282C503.98 355.824 505.247 357.573 506.101 359.528C506.954 361.483 507.381 363.7 507.381 366.179C507.381 368.795 506.872 371.136 505.853 373.201C504.834 375.267 503.36 377.015 501.433 378.447C499.505 379.879 497.205 380.967 494.534 381.711C491.863 382.454 488.875 382.826 485.57 382.826C482.596 382.826 479.663 382.441 476.771 381.67C473.88 380.871 471.25 379.673 468.882 378.076C466.541 376.478 464.668 374.441 463.264 371.962C461.859 369.483 461.157 366.551 461.157 363.163H473.591C473.591 365.036 473.88 366.619 474.458 367.914C475.037 369.208 475.849 370.255 476.895 371.053C477.969 371.852 479.236 372.43 480.696 372.788C482.183 373.146 483.808 373.325 485.57 373.325C487.718 373.325 489.481 373.022 490.858 372.416C492.262 371.811 493.295 370.971 493.956 369.897C494.644 368.823 494.989 367.611 494.989 366.261ZM513.164 360.106V359.239C513.164 355.962 513.633 352.946 514.569 350.192C515.505 347.411 516.868 345.001 518.658 342.963C520.448 340.925 522.652 339.342 525.268 338.213C527.884 337.056 530.886 336.478 534.273 336.478C537.66 336.478 540.676 337.056 543.32 338.213C545.963 339.342 548.18 340.925 549.97 342.963C551.788 345.001 553.165 347.411 554.101 350.192C555.037 352.946 555.506 355.962 555.506 359.239V360.106C555.506 363.356 555.037 366.372 554.101 369.153C553.165 371.907 551.788 374.317 549.97 376.382C548.18 378.42 545.977 380.003 543.361 381.133C540.745 382.262 537.743 382.826 534.356 382.826C530.968 382.826 527.953 382.262 525.309 381.133C522.693 380.003 520.476 378.42 518.658 376.382C516.868 374.317 515.505 371.907 514.569 369.153C513.633 366.372 513.164 363.356 513.164 360.106ZM525.061 359.239V360.106C525.061 361.979 525.226 363.728 525.557 365.353C525.887 366.977 526.411 368.409 527.127 369.649C527.87 370.86 528.834 371.811 530.018 372.499C531.202 373.188 532.648 373.532 534.356 373.532C536.008 373.532 537.426 373.188 538.61 372.499C539.795 371.811 540.745 370.86 541.461 369.649C542.177 368.409 542.7 366.977 543.03 365.353C543.388 363.728 543.567 361.979 543.567 360.106V359.239C543.567 357.421 543.388 355.714 543.03 354.117C542.7 352.492 542.163 351.06 541.419 349.821C540.703 348.554 539.753 347.562 538.569 346.846C537.385 346.13 535.953 345.772 534.273 345.772C532.593 345.772 531.161 346.13 529.977 346.846C528.82 347.562 527.87 348.554 527.127 349.821C526.411 351.06 525.887 352.492 525.557 354.117C525.226 355.714 525.061 357.421 525.061 359.239ZM575.375 318.55V382H563.437V318.55H575.375ZM583.306 360.106V359.239C583.306 355.962 583.775 352.946 584.711 350.192C585.647 347.411 587.01 345.001 588.8 342.963C590.59 340.925 592.794 339.342 595.41 338.213C598.026 337.056 601.028 336.478 604.415 336.478C607.802 336.478 610.818 337.056 613.462 338.213C616.105 339.342 618.322 340.925 620.112 342.963C621.93 345.001 623.307 347.411 624.243 350.192C625.179 352.946 625.648 355.962 625.648 359.239V360.106C625.648 363.356 625.179 366.372 624.243 369.153C623.307 371.907 621.93 374.317 620.112 376.382C618.322 378.42 616.119 380.003 613.503 381.133C610.887 382.262 607.885 382.826 604.498 382.826C601.11 382.826 598.095 382.262 595.451 381.133C592.835 380.003 590.618 378.42 588.8 376.382C587.01 374.317 585.647 371.907 584.711 369.153C583.775 366.372 583.306 363.356 583.306 360.106ZM595.203 359.239V360.106C595.203 361.979 595.368 363.728 595.699 365.353C596.029 366.977 596.553 368.409 597.269 369.649C598.012 370.86 598.976 371.811 600.16 372.499C601.344 373.188 602.79 373.532 604.498 373.532C606.15 373.532 607.568 373.188 608.752 372.499C609.937 371.811 610.887 370.86 611.603 369.649C612.319 368.409 612.842 366.977 613.172 365.353C613.53 363.728 613.709 361.979 613.709 360.106V359.239C613.709 357.421 613.53 355.714 613.172 354.117C612.842 352.492 612.305 351.06 611.561 349.821C610.845 348.554 609.895 347.562 608.711 346.846C607.527 346.13 606.095 345.772 604.415 345.772C602.735 345.772 601.303 346.13 600.119 346.846C598.962 347.562 598.012 348.554 597.269 349.821C596.553 351.06 596.029 352.492 595.699 354.117C595.368 355.714 595.203 357.421 595.203 359.239Z" fill="#0058F0"></path>
<defs>
<clipPath id="clip0_1558_327">
<rect width="792" height="300" fill="white"></rect>
</clipPath>
</defs>
</svg>